<svg width="640" height="192" viewBox="0 0 640 192" fill="none" xmlns="http://www.w3.org/2000/svg">
  <defs>
    <linearGradient id="markBg" x1="18" y1="18" x2="174" y2="174" gradientUnits="userSpaceOnUse">
      <stop stop-color="#0F172A"/>
      <stop offset="1" stop-color="#1E293B"/>
    </linearGradient>
    <linearGradient id="markTeal" x1="50" y1="46" x2="128" y2="132" gradientUnits="userSpaceOnUse">
      <stop stop-color="#5EEAD4"/>
      <stop offset="1" stop-color="#14B8A6"/>
    </linearGradient>
    <linearGradient id="markViolet" x1="94" y1="64" x2="150" y2="142" gradientUnits="userSpaceOnUse">
      <stop stop-color="#C4B5FD"/>
      <stop offset="1" stop-color="#8B5CF6"/>
    </linearGradient>
    <linearGradient id="textGrad" x1="214" y1="52" x2="470" y2="152" gradientUnits="userSpaceOnUse">
      <stop stop-color="#0F172A"/>
      <stop offset="1" stop-color="#0F766E"/>
    </linearGradient>
  </defs>
  <rect x="16" y="16" width="160" height="160" rx="40" fill="url(#markBg)"/>
  <path d="M56 48C56 43.5817 59.5817 40 64 40H122C126.418 40 130 43.5817 130 48V56H72V72H120C124.418 72 128 75.5817 128 80V88H72V136H56V48Z" fill="url(#markTeal)"/>
  <path d="M105.504 65.9445C108.46 58.8797 118.466 58.8797 121.422 65.9445L142.872 117.254C145.028 122.412 141.236 128 135.643 128H91.2836C85.6905 128 81.8986 122.412 84.0551 117.254L105.504 65.9445ZM113.462 79.7741L99.5605 113.333H127.363L113.462 79.7741Z" fill="url(#markViolet)"/>
  <circle cx="133.5" cy="51.5" r="6.5" fill="#F8FAFC" fill-opacity="0.96"/>
  <path d="M223.404 131V58.272H275.244V74.784H243.372V87.936H272.556V103.008H243.372V131H223.404ZM284.302 131V58.272H304.27V131H284.302ZM357.85 131L353.05 121.112H352.474C348.698 125.528 344.858 128.6 340.954 130.328C337.114 131.992 332.106 132.824 325.93 132.824C318.346 132.824 312.362 130.648 307.978 126.296C303.594 121.88 301.402 115.64 301.402 107.576C301.402 99.128 304.346 92.952 310.234 89.048C316.186 85.08 324.97 82.888 336.586 82.472L350.314 82.04V80.888C350.314 74.168 346.874 70.808 339.994 70.808C334.682 70.808 328.442 72.408 321.274 75.608L314.65 62.12C322.394 58.088 330.986 56.072 340.426 56.072C349.45 56.072 356.362 58.04 361.162 61.976C365.962 65.912 368.362 71.896 368.362 79.928V131H357.85ZM350.314 94.184L341.962 94.472C335.69 94.664 331.018 95.8 327.946 97.88C324.874 99.96 323.338 103.128 323.338 107.384C323.338 113.496 326.842 116.552 333.85 116.552C338.874 116.552 342.874 115.112 345.85 112.232C348.89 109.288 350.362 105.4 350.266 100.568L350.314 94.184ZM382.896 131V58.272H402.864V131H382.896Z" fill="url(#textGrad)"/>
  <path d="M421.921 131L448.705 58.272H473.137L499.921 131H478.609L473.617 116.648H447.937L442.945 131H421.921ZM452.641 100.904H468.913L463.969 86.312C463.585 85.32 463.089 83.832 462.481 81.848C461.937 79.8 461.361 77.72 460.753 75.608C460.145 73.432 459.649 71.544 459.265 69.944C458.881 71.544 458.353 73.56 457.681 75.992C457.073 78.36 456.497 80.552 455.953 82.568C455.409 84.52 455.025 85.944 454.801 86.84L452.641 100.904Z" fill="#111827"/>
</svg>
