<svg width="256" height="256" viewBox="0 0 256 256" fill="none" xmlns="http://www.w3.org/2000/svg">
  <defs>
    <linearGradient id="bg" x1="28" y1="24" x2="224" y2="228" gradientUnits="userSpaceOnUse">
      <stop stop-color="#0F172A"/>
      <stop offset="0.55" stop-color="#111827"/>
      <stop offset="1" stop-color="#1E293B"/>
    </linearGradient>
    <linearGradient id="teal" x1="66" y1="60" x2="177" y2="176" gradientUnits="userSpaceOnUse">
      <stop stop-color="#5EEAD4"/>
      <stop offset="1" stop-color="#14B8A6"/>
    </linearGradient>
    <linearGradient id="violet" x1="120" y1="88" x2="203" y2="188" gradientUnits="userSpaceOnUse">
      <stop stop-color="#C4B5FD"/>
      <stop offset="1" stop-color="#8B5CF6"/>
    </linearGradient>
  </defs>
  <rect x="20" y="20" width="216" height="216" rx="56" fill="url(#bg)"/>
  <path d="M78 72C78 65.3726 83.3726 60 90 60H166C172.627 60 178 65.3726 178 72V82H100V106H164C170.627 106 176 111.373 176 118V130H100V196H78V72Z" fill="url(#teal)"/>
  <path d="M145.443 96.9167C149.875 86.3211 164.881 86.3211 169.314 96.9167L201.48 173.833C204.715 181.572 199.027 190 190.638 190H124.119C115.73 190 110.042 181.572 113.277 173.833L145.443 96.9167ZM157.378 117.661L136.526 168H178.23L157.378 117.661Z" fill="url(#violet)"/>
  <circle cx="183" cy="77" r="9" fill="#F8FAFC" fill-opacity="0.94"/>
</svg>
