<svg width="256" height="256" viewBox="0 0 256 256" fill="none" xmlns="http://www.w3.org/2000/svg">
  <defs>
    <linearGradient id="dark" x1="24" y1="24" x2="232" y2="232" gradientUnits="userSpaceOnUse">
      <stop stop-color="#020617"/>
      <stop offset="1" stop-color="#111827"/>
    </linearGradient>
    <linearGradient id="ring" x1="68" y1="52" x2="200" y2="206" gradientUnits="userSpaceOnUse">
      <stop stop-color="#2DD4BF"/>
      <stop offset="0.45" stop-color="#22C55E"/>
      <stop offset="1" stop-color="#8B5CF6"/>
    </linearGradient>
  </defs>
  <rect x="20" y="20" width="216" height="216" rx="56" fill="url(#dark)"/>
  <path d="M128 60C150.437 60 169.252 66.6886 184.444 80.0667L171.203 95.2305C159.811 85.5365 145.799 80.6895 129.166 80.6895C114.152 80.6895 101.373 85.4405 90.8281 94.9424C80.3477 104.444 75.1074 116.551 75.1074 131.264C75.1074 145.913 80.1872 158.053 90.3467 167.684C100.571 177.25 113.767 182.033 129.935 182.033C142.735 182.033 153.792 179.66 163.107 174.914V146.813H126.715V127.181H184.252V186.236C168.619 195.486 150.639 200.111 130.311 200.111C107.331 200.111 88.0916 193.006 72.5938 178.795C57.1602 164.52 49.4434 148.739 49.4434 131.456C49.4434 113.917 57.256 98.0726 72.8818 83.9238C88.5713 69.7751 106.944 62.7007 128 62.7007V60Z" fill="url(#ring)" fill-opacity="0.18"/>
  <path d="M117.68 74H136.064L177 182H157.176L146.816 152.752H106.544L96.184 182H76.84L117.68 74ZM141.008 136.72L126.68 95.808L112.352 136.72H141.008Z" fill="#F8FAFC"/>
  <circle cx="182" cy="80" r="7" fill="#2DD4BF"/>
  <circle cx="191" cy="135" r="5" fill="#8B5CF6"/>
  <circle cx="72" cy="154" r="6" fill="#22C55E"/>
</svg>
